<?xml version="1.0" encoding="UTF-8" standalone="no"?>
<!-- Created with Inkscape (http://www.inkscape.org/) -->

<svg
   xmlns:dc="http://purl.org/dc/elements/1.1/"
   xmlns:cc="http://creativecommons.org/ns#"
   xmlns:rdf="http://www.w3.org/1999/02/22-rdf-syntax-ns#"
   xmlns:svg="http://www.w3.org/2000/svg"
   xmlns="http://www.w3.org/2000/svg"
   xmlns:sodipodi="http://sodipodi.sourceforge.net/DTD/sodipodi-0.dtd"
   xmlns:inkscape="http://www.inkscape.org/namespaces/inkscape"
   width="211.66667mm"
   height="64.136421mm"
   viewBox="0 0 211.66667 64.136422"
   version="1.1"
   id="svg8"
   inkscape:version="0.92.4 (5da689c313, 2019-01-14)"
   sodipodi:docname="scriic.svg"
   inkscape:export-filename="/home/danth/Code/scriic/docs/scriic.png"
   inkscape:export-xdpi="61.439999"
   inkscape:export-ydpi="61.439999">
  <defs
     id="defs2" />
  <sodipodi:namedview
     id="base"
     pagecolor="#ffffff"
     bordercolor="#666666"
     borderopacity="1.0"
     inkscape:pageopacity="0.0"
     inkscape:pageshadow="2"
     inkscape:zoom="0.98994949"
     inkscape:cx="417.00658"
     inkscape:cy="180.94575"
     inkscape:document-units="mm"
     inkscape:current-layer="layer1"
     showgrid="false"
     inkscape:window-width="1366"
     inkscape:window-height="703"
     inkscape:window-x="0"
     inkscape:window-y="0"
     inkscape:window-maximized="1" />
  <metadata
     id="metadata5">
    <rdf:RDF>
      <cc:Work
         rdf:about="">
        <dc:format>image/svg+xml</dc:format>
        <dc:type
           rdf:resource="http://purl.org/dc/dcmitype/StillImage" />
        <dc:title></dc:title>
      </cc:Work>
    </rdf:RDF>
  </metadata>
  <g
     inkscape:label="Layer 1"
     inkscape:groupmode="layer"
     id="layer1"
     transform="translate(28.456755,-254.09871)">
    <text
       xml:space="preserve"
       style="font-style:normal;font-variant:normal;font-weight:normal;font-stretch:normal;font-size:82.1677475px;line-height:1.25;font-family:'Bold Oblique';-inkscape-font-specification:'Bold Oblique, ';letter-spacing:0px;word-spacing:0px;fill:#000000;fill-opacity:1;stroke:none;stroke-width:2.05419374"
       x="-23.048626"
       y="313.95972"
       id="text12"><tspan
         sodipodi:role="line"
         x="-23.048626"
         y="313.95972"
         style="stroke-width:2.05419374"
         id="tspan14">scr</tspan></text>
    <text
       id="text20"
       y="313.95972"
       x="127.17121"
       style="font-style:normal;font-variant:normal;font-weight:normal;font-stretch:normal;font-size:82.1677475px;line-height:1.25;font-family:'Bold Oblique';-inkscape-font-specification:'Bold Oblique, ';letter-spacing:0px;word-spacing:0px;fill:#000000;fill-opacity:1;stroke:none;stroke-width:2.05419374"
       xml:space="preserve"><tspan
         id="tspan18"
         style="stroke-width:2.05419374"
         y="313.95972"
         x="127.17121"
         sodipodi:role="line">c</tspan></text>
    <g
       aria-label="ii"
       style="font-style:normal;font-variant:normal;font-weight:normal;font-stretch:normal;font-size:32.0273819px;line-height:1.25;font-family:'Bold Oblique';-inkscape-font-specification:'Bold Oblique, ';letter-spacing:0px;word-spacing:0px;fill:#6700a2;fill-opacity:1;stroke:none;stroke-width:0.80068457"
       id="text24"
       transform="matrix(2.5655469,0,0,2.5655469,-121.13666,-448.00775)">
      <path
         d="M 86.70618,282.65173 83.663579,297 h 3.555039 l 3.042602,-14.34827 z"
         style="fill:#6700a2;fill-opacity:1;stroke-width:0.80068457"
         id="path878"
         inkscape:connector-curvature="0"
         sodipodi:nodetypes="ccccc" />
      <path
         d="M 94.650472,282.65173 91.607871,297 h 3.555039 l 3.042602,-14.34827 z"
         style="fill:#6700a2;fill-opacity:1;stroke-width:0.80068457"
         id="path880"
         inkscape:connector-curvature="0"
         sodipodi:nodetypes="ccccc" />
    </g>
    <g
       id="g911"
       transform="matrix(2.5655469,0,0,2.5655469,-118.66389,-447.8623)">
      <g
         transform="translate(-0.35047116,-0.20045214)"
         id="text842"
         style="font-style:normal;font-variant:normal;font-weight:normal;font-stretch:normal;font-size:32.0273819px;line-height:1.25;font-family:'Bold Oblique';-inkscape-font-specification:'Bold Oblique, ';letter-spacing:0px;word-spacing:0px;fill:#6700a2;fill-opacity:1;stroke:none;stroke-width:0.80068457"
         aria-label="ii">
        <path
           sodipodi:nodetypes="scsscsss"
           inkscape:connector-curvature="0"
           id="path844"
           style="fill:#6700a2;fill-opacity:1;stroke-width:0.80068457"
           d="m 104.53363,275.06124 c -1.28109,0 -2.46611,0.96082 -2.75435,2.20989 -0.032,0.16014 -0.032,0.32027 -0.032,0.44838 0,1.02488 0.73663,1.76151 1.85759,1.76151 1.28109,0 2.46611,-0.96082 2.72233,-2.20989 0.032,-0.16014 0.0641,-0.3523 0.0641,-0.51244 0,-0.99285 -0.76866,-1.69745 -1.85759,-1.69745 z" />
      </g>
      <g
         transform="translate(7.147493,-0.20045214)"
         aria-label="ii"
         style="font-style:normal;font-variant:normal;font-weight:normal;font-stretch:normal;font-size:32.0273819px;line-height:1.25;font-family:'Bold Oblique';-inkscape-font-specification:'Bold Oblique, ';letter-spacing:0px;word-spacing:0px;fill:#6700a2;fill-opacity:1;stroke:none;stroke-width:0.80068457"
         id="g852">
        <path
           d="m 104.53363,275.06124 c -1.28109,0 -2.46611,0.96082 -2.75435,2.20989 -0.032,0.16014 -0.032,0.32027 -0.032,0.44838 0,1.02488 0.73663,1.76151 1.85759,1.76151 1.28109,0 2.46611,-0.96082 2.72233,-2.20989 0.032,-0.16014 0.0641,-0.3523 0.0641,-0.51244 0,-0.99285 -0.76866,-1.69745 -1.85759,-1.69745 z"
           style="fill:#6700a2;fill-opacity:1;stroke-width:0.80068457"
           id="path850"
           inkscape:connector-curvature="0"
           sodipodi:nodetypes="scsscsss" />
      </g>
      <g
         id="g856"
         style="font-style:normal;font-variant:normal;font-weight:normal;font-stretch:normal;font-size:32.0273819px;line-height:1.25;font-family:'Bold Oblique';-inkscape-font-specification:'Bold Oblique, ';letter-spacing:0px;word-spacing:0px;fill:#6700a2;fill-opacity:1;stroke:none;stroke-width:0.80068457"
         aria-label="ii"
         transform="translate(-22.844336,-0.20045214)">
        <path
           sodipodi:nodetypes="scsscsss"
           inkscape:connector-curvature="0"
           id="path854"
           style="fill:#6700a2;fill-opacity:1;stroke-width:0.80068457"
           d="m 104.53363,275.06124 c -1.28109,0 -2.46611,0.96082 -2.75435,2.20989 -0.032,0.16014 -0.032,0.32027 -0.032,0.44838 0,1.02488 0.73663,1.76151 1.85759,1.76151 1.28109,0 2.46611,-0.96082 2.72233,-2.20989 0.032,-0.16014 0.0641,-0.3523 0.0641,-0.51244 0,-0.99285 -0.76866,-1.69745 -1.85759,-1.69745 z" />
      </g>
      <g
         transform="translate(-30.342299,-0.20045214)"
         aria-label="ii"
         style="font-style:normal;font-variant:normal;font-weight:normal;font-stretch:normal;font-size:32.0273819px;line-height:1.25;font-family:'Bold Oblique';-inkscape-font-specification:'Bold Oblique, ';letter-spacing:0px;word-spacing:0px;fill:#6700a2;fill-opacity:1;stroke:none;stroke-width:0.80068457"
         id="g860">
        <path
           d="m 104.53363,275.06124 c -1.28109,0 -2.46611,0.96082 -2.75435,2.20989 -0.032,0.16014 -0.032,0.32027 -0.032,0.44838 0,1.02488 0.73663,1.76151 1.85759,1.76151 1.28109,0 2.46611,-0.96082 2.72233,-2.20989 0.032,-0.16014 0.0641,-0.3523 0.0641,-0.51244 0,-0.99285 -0.76866,-1.69745 -1.85759,-1.69745 z"
           style="fill:#6700a2;fill-opacity:1;stroke-width:0.80068457"
           id="path858"
           inkscape:connector-curvature="0"
           sodipodi:nodetypes="scsscsss" />
      </g>
      <g
         id="g864"
         style="font-style:normal;font-variant:normal;font-weight:normal;font-stretch:normal;font-size:32.0273819px;line-height:1.25;font-family:'Bold Oblique';-inkscape-font-specification:'Bold Oblique, ';letter-spacing:0px;word-spacing:0px;fill:#6700a2;fill-opacity:1;stroke:none;stroke-width:0.80068457"
         aria-label="ii"
         transform="translate(-37.840261,-0.20045214)">
        <path
           sodipodi:nodetypes="scsscsss"
           inkscape:connector-curvature="0"
           id="path862"
           style="fill:#6700a2;fill-opacity:1;stroke-width:0.80068457"
           d="m 104.53363,275.06124 c -1.28109,0 -2.46611,0.96082 -2.75435,2.20989 -0.032,0.16014 -0.032,0.32027 -0.032,0.44838 0,1.02488 0.73663,1.76151 1.85759,1.76151 1.28109,0 2.46611,-0.96082 2.72233,-2.20989 0.032,-0.16014 0.0641,-0.3523 0.0641,-0.51244 0,-0.99285 -0.76866,-1.69745 -1.85759,-1.69745 z" />
      </g>
      <g
         transform="translate(-45.338215,-0.20045214)"
         aria-label="ii"
         style="font-style:normal;font-variant:normal;font-weight:normal;font-stretch:normal;font-size:32.0273819px;line-height:1.25;font-family:'Bold Oblique';-inkscape-font-specification:'Bold Oblique, ';letter-spacing:0px;word-spacing:0px;fill:#6700a2;fill-opacity:1;stroke:none;stroke-width:0.80068457"
         id="g868">
        <path
           d="m 104.53363,275.06124 c -1.28109,0 -2.46611,0.96082 -2.75435,2.20989 -0.032,0.16014 -0.032,0.32027 -0.032,0.44838 0,1.02488 0.73663,1.76151 1.85759,1.76151 1.28109,0 2.46611,-0.96082 2.72233,-2.20989 0.032,-0.16014 0.0641,-0.3523 0.0641,-0.51244 0,-0.99285 -0.76866,-1.69745 -1.85759,-1.69745 z"
           style="fill:#6700a2;fill-opacity:1;stroke-width:0.80068457"
           id="path866"
           inkscape:connector-curvature="0"
           sodipodi:nodetypes="scsscsss" />
      </g>
      <g
         id="g872"
         style="font-style:normal;font-variant:normal;font-weight:normal;font-stretch:normal;font-size:32.0273819px;line-height:1.25;font-family:'Bold Oblique';-inkscape-font-specification:'Bold Oblique, ';letter-spacing:0px;word-spacing:0px;fill:#6700a2;fill-opacity:1;stroke:none;stroke-width:0.80068457"
         aria-label="ii"
         transform="translate(-52.836171,-0.20045214)">
        <path
           sodipodi:nodetypes="scsscsss"
           inkscape:connector-curvature="0"
           id="path870"
           style="fill:#6700a2;fill-opacity:1;stroke-width:0.80068457"
           d="m 104.53363,275.06124 c -1.28109,0 -2.46611,0.96082 -2.75435,2.20989 -0.032,0.16014 -0.032,0.32027 -0.032,0.44838 0,1.02488 0.73663,1.76151 1.85759,1.76151 1.28109,0 2.46611,-0.96082 2.72233,-2.20989 0.032,-0.16014 0.0641,-0.3523 0.0641,-0.51244 0,-0.99285 -0.76866,-1.69745 -1.85759,-1.69745 z" />
      </g>
      <g
         transform="translate(-60.334129,-0.20045214)"
         aria-label="ii"
         style="font-style:normal;font-variant:normal;font-weight:normal;font-stretch:normal;font-size:32.0273819px;line-height:1.25;font-family:'Bold Oblique';-inkscape-font-specification:'Bold Oblique, ';letter-spacing:0px;word-spacing:0px;fill:#6700a2;fill-opacity:1;stroke:none;stroke-width:0.80068457"
         id="g876">
        <path
           d="m 104.53363,275.06124 c -1.28109,0 -2.46611,0.96082 -2.75435,2.20989 -0.032,0.16014 -0.032,0.32027 -0.032,0.44838 0,1.02488 0.73663,1.76151 1.85759,1.76151 1.28109,0 2.46611,-0.96082 2.72233,-2.20989 0.032,-0.16014 0.0641,-0.3523 0.0641,-0.51244 0,-0.99285 -0.76866,-1.69745 -1.85759,-1.69745 z"
           style="fill:#6700a2;fill-opacity:1;stroke-width:0.80068457"
           id="path874"
           inkscape:connector-curvature="0"
           sodipodi:nodetypes="scsscsss" />
      </g>
      <g
         transform="translate(-15.34639,-0.20045214)"
         aria-label="ii"
         style="font-style:normal;font-variant:normal;font-weight:normal;font-stretch:normal;font-size:32.0273819px;line-height:1.25;font-family:'Bold Oblique';-inkscape-font-specification:'Bold Oblique, ';letter-spacing:0px;word-spacing:0px;fill:#6700a2;fill-opacity:1;stroke:none;stroke-width:0.80068457"
         id="g885">
        <path
           d="m 104.53363,275.06124 c -1.28109,0 -2.46611,0.96082 -2.75435,2.20989 -0.032,0.16014 -0.032,0.32027 -0.032,0.44838 0,1.02488 0.73663,1.76151 1.85759,1.76151 1.28109,0 2.46611,-0.96082 2.72233,-2.20989 0.032,-0.16014 0.0641,-0.3523 0.0641,-0.51244 0,-0.99285 -0.76866,-1.69745 -1.85759,-1.69745 z"
           style="fill:#6700a2;fill-opacity:1;stroke-width:0.80068457"
           id="path883"
           inkscape:connector-curvature="0"
           sodipodi:nodetypes="scsscsss" />
      </g>
      <g
         id="g889"
         style="font-style:normal;font-variant:normal;font-weight:normal;font-stretch:normal;font-size:32.0273819px;line-height:1.25;font-family:'Bold Oblique';-inkscape-font-specification:'Bold Oblique, ';letter-spacing:0px;word-spacing:0px;fill:#6700a2;fill-opacity:1;stroke:none;stroke-width:0.80068457"
         aria-label="ii"
         transform="translate(-7.8484252,-0.20045214)">
        <path
           sodipodi:nodetypes="scsscsss"
           inkscape:connector-curvature="0"
           id="path887"
           style="fill:#6700a2;fill-opacity:1;stroke-width:0.80068457"
           d="m 104.53363,275.06124 c -1.28109,0 -2.46611,0.96082 -2.75435,2.20989 -0.032,0.16014 -0.032,0.32027 -0.032,0.44838 0,1.02488 0.73663,1.76151 1.85759,1.76151 1.28109,0 2.46611,-0.96082 2.72233,-2.20989 0.032,-0.16014 0.0641,-0.3523 0.0641,-0.51244 0,-0.99285 -0.76866,-1.69745 -1.85759,-1.69745 z" />
      </g>
    </g>
  </g>
</svg>
